<svg id="Layer_1" data-name="Layer 1" xmlns="http://www.w3.org/2000/svg" width="300" height="124" viewBox="0 0 300 124"><title>strata_logo</title><path d="M0,102.63H7.41c6.49,0,10.25,3,10.25,10v.67c0,6.88-3.55,10.37-10.22,10.37H0Zm7.37,17.55c3.64,0,5.34-1.79,5.34-6.58v-1.06c0-5-2-6.46-5.58-6.46H4.68v14.1Z" fill="#58595b"/><path d="M28.33,102.63h4.85l7.4,21H35.82l-1.67-4.85H26.72l-1.64,4.85H20.87Zm-.61,12.94h5.37l-2.64-7.82h-.12Z" fill="#58595b"/><path d="M47.7,106.08H41.91v-3.46H58.16v3.46H52.34v17.55H47.7Z" fill="#58595b"/><path d="M66.9,102.63h4.85l7.4,21H74.39l-1.67-4.85H65.29l-1.64,4.85H59.44Zm-.61,12.94h5.37L69,107.75H68.9Z" fill="#58595b"/><path d="M91.74,113.51v-.76c0-7.64,4.52-10.49,10.13-10.49a12.11,12.11,0,0,1,5.36,1v3.49a13.29,13.29,0,0,0-4.76-.88c-3.52,0-5.76,1.88-5.76,6.46v1c0,4.49,1.58,7,5.79,7a11.61,11.61,0,0,0,4.91-1.06v3.46a12.62,12.62,0,0,1-5.88,1.21C95.46,124,91.74,120.63,91.74,113.51Z" fill="#58595b"/><path d="M111.69,113.48v-.67c0-7.06,4.3-10.55,9.91-10.55s9.73,3.37,9.73,10.49v.67c0,7.09-4.3,10.58-9.88,10.58S111.69,120.63,111.69,113.48Zm14.73.36v-1.06c0-4.58-1.39-7-5-7-3.24,0-4.85,2.49-4.85,6.67v1c0,4.67,1.49,7.06,4.94,7.06C124.81,120.51,126.42,118,126.42,113.84Z" fill="#58595b"/><path d="M137.14,102.63h5.09l7.94,13.61h.09V102.63h4v21h-4.52l-8.52-14.73h-.12v14.73h-4Z" fill="#58595b"/><path d="M161,102.63H174.6v3.46h-8.91v5.67h6.94v3.42h-6.94v8.46H161Z" fill="#58595b"/><path d="M179.91,102.63h13.7v3.46h-9.09v5.09h7.06v3.39h-7.06v5.61h9.31v3.46H179.91Z" fill="#58595b"/><path d="M199.73,102.63h7.76c5,0,7.61,2,7.61,6.31a5.28,5.28,0,0,1-3.67,5.4v.12l5,9.19H211.5l-4.33-8.15h-2.79v8.15h-4.64Zm7.18,9.85c2.49,0,3.49-1.09,3.49-3.36s-1-3.15-3.52-3.15h-2.58v6.52Z" fill="#58595b"/><path d="M221.48,102.63h13.7v3.46h-9.09v5.09h7.06v3.39h-7.06v5.61h9.31v3.46H221.48Z" fill="#58595b"/><path d="M241.3,102.63h5.09l7.94,13.61h.09V102.63h4v21h-4.52l-8.52-14.73h-.12v14.73h-4Z" fill="#58595b"/><path d="M264.25,113.51v-.76c0-7.64,4.52-10.49,10.13-10.49a12.11,12.11,0,0,1,5.36,1v3.49a13.28,13.28,0,0,0-4.76-.88c-3.52,0-5.76,1.88-5.76,6.46v1c0,4.49,1.57,7,5.79,7a11.61,11.61,0,0,0,4.91-1.06v3.46A12.62,12.62,0,0,1,274,124C268,124,264.25,120.63,264.25,113.51Z" fill="#58595b"/><path d="M285.55,102.63h13.7v3.46h-9.09v5.09h7.06v3.39h-7.06v5.61h9.31v3.46H285.55Z" fill="#58595b"/><path d="M48.86,5.3c0-2.53,1.26-4,3.41-4s3.28,1.52,3.28,4V25.63c0,2.65-1.26,4.17-3.41,4.17a3.63,3.63,0,0,1-2.9-1.64c-.25-.63-.25-.63-1.14-6.44C46.59,12.25,38,5.81,27,5.81S8,12.37,8,21.72C8,29,12,32.83,24.49,37l12.88,4.42c14.27,4.8,19.82,10.86,19.82,22,0,14-10.61,23.36-26.39,23.36-12.12,0-20.2-4.55-24.12-13.64v8.33c0,2.53-1.26,4-3.28,4S0,84,0,81.44V60c0-2.65,1.26-4.17,3.41-4.17,2.4,0,3.28,1.26,3.53,4.92.13,4,2.9,10.48,5.81,13.64,3.79,4.17,9.72,6.57,16.54,6.57,12.12,0,20.2-6.82,20.2-17a13.26,13.26,0,0,0-6.19-11.74A45,45,0,0,0,33.84,48l-11-3.79c-8.71-3-12.75-4.92-15.91-7.32A18.17,18.17,0,0,1,.25,22.22C.25,9,10.86,0,26.26,0c10.86,0,18.56,4.17,22.6,12.37Z" fill="#d3002d"/><path d="M77.15,69.32c0,6.19.25,7.83,1.64,9.72a7.43,7.43,0,0,0,6.06,2.9c3.53,0,5.93-1.89,7.07-5.43a15.49,15.49,0,0,0,.88-4.92,2.7,2.7,0,0,1,2.78-2.65c1.89,0,2.9,1.39,2.9,3.79a18.24,18.24,0,0,1-2.27,8.08c-2.4,4.17-6.44,6.44-11.87,6.44-9.6,0-14-5.68-14-17.93V34.6c0-1.77-.76-2.53-2.53-2.53H61.49c-2,0-3.28-1-3.28-2.65s1.26-2.53,3.28-2.53H67.8c1.77,0,2.53-.76,2.53-2.53v-8c0-2.65,1.26-4.17,3.41-4.17s3.41,1.52,3.41,4.17v8c0,1.77.76,2.53,2.53,2.53H93.56c2,0,3.16.88,3.16,2.65s-1.14,2.53-3.16,2.53H79.67c-1.77,0-2.53.76-2.53,2.53Z" fill="#d3002d"/><path d="M119.7,38.89c1.26-4.29,2.4-6.31,4.92-8.59a21.14,21.14,0,0,1,13.89-5.18c3.28,0,5.18,1.26,5.18,3.28,0,1.52-.76,2.4-1.89,2.4a9,9,0,0,1-1.64-.13,6,6,0,0,0-1.89-.25,28.07,28.07,0,0,0-8.84,2.15c-6.31,2.9-9.72,9.85-9.72,19.95V77.78c0,1.77.76,2.53,2.53,2.53h7.32c2,0,3.16,1,3.16,2.65s-1.14,2.53-3.16,2.53H105.18c-2,0-3.28-1-3.28-2.65s1.26-2.53,3.28-2.53h5.18c1.77,0,2.53-.76,2.53-2.53V34.6c0-1.77-.76-2.53-2.53-2.53h-5.18c-2,0-3.28-1-3.28-2.65s1.26-2.53,3.28-2.53h11.49c2.15,0,3,.88,3,3Z" fill="#d3002d"/><path d="M185.35,73.11c-4.42,10-11,14.14-22.6,14.14-13.13,0-21.21-6.69-21.21-17.8A16.74,16.74,0,0,1,152,53.28c4.54-2,11.24-2.9,21.72-2.9,2.27,0,4.8,0,6.82.13a17.09,17.09,0,0,0,2.27.13c1.52,0,2.53-.76,2.53-2.15v-.38c0-8.21-.76-10.86-4.17-13.89-2.9-2.65-6.82-3.79-12.75-3.79-10.1,0-16.16,4.17-17.3,11.87a3.54,3.54,0,0,1-7.07-.38c0-5.18,4.42-11.36,10.1-14.14,3.66-1.77,8.59-2.65,14.52-2.65,8.84,0,15.15,2.15,19.07,6.69,3.41,3.79,4.42,7.7,4.42,16.16v29.8c0,1.77.76,2.53,2.53,2.53H199c2,0,3.16,1,3.16,2.65S201,85.48,199,85.48H188.38c-2.15,0-3-.88-3-3Zm-36.62-3.91c0,8.08,5.68,12.75,15.4,12.75,8,0,14-3,17.42-8.71,1.77-2.78,3.54-10.73,3.54-15.53A2,2,0,0,0,184,55.81c-.51-.25-6.06-.51-11.24-.51C156.44,55.3,148.74,59.85,148.74,69.19Z" fill="#d3002d"/><path d="M213.51,69.32c0,6.19.25,7.83,1.64,9.72a7.42,7.42,0,0,0,6.06,2.9c3.54,0,5.93-1.89,7.07-5.43a15.49,15.49,0,0,0,.88-4.92,2.7,2.7,0,0,1,2.78-2.65c1.89,0,2.9,1.39,2.9,3.79a18.24,18.24,0,0,1-2.27,8.08c-2.4,4.17-6.44,6.44-11.87,6.44-9.6,0-14-5.68-14-17.93V34.6c0-1.77-.76-2.53-2.52-2.53h-6.31c-2,0-3.28-1-3.28-2.65s1.26-2.53,3.28-2.53h6.31c1.77,0,2.52-.76,2.52-2.53v-8c0-2.65,1.26-4.17,3.41-4.17s3.41,1.52,3.41,4.17v8c0,1.77.76,2.53,2.52,2.53h13.89c2,0,3.16.88,3.16,2.65s-1.14,2.53-3.16,2.53H216c-1.77,0-2.52.76-2.52,2.53Z" fill="#d3002d"/><path d="M283.21,73.11c-4.42,10-11,14.14-22.6,14.14-13.13,0-21.21-6.69-21.21-17.8a16.74,16.74,0,0,1,10.48-16.16c4.54-2,11.24-2.9,21.72-2.9,2.27,0,4.8,0,6.82.13a17.08,17.08,0,0,0,2.27.13c1.52,0,2.52-.76,2.52-2.15v-.38c0-8.21-.76-10.86-4.17-13.89-2.9-2.65-6.82-3.79-12.75-3.79-10.1,0-16.16,4.17-17.3,11.87a3.54,3.54,0,0,1-7.07-.38c0-5.18,4.42-11.36,10.1-14.14,3.66-1.77,8.59-2.65,14.52-2.65,8.84,0,15.15,2.15,19.07,6.69C289,35.61,290,39.52,290,48v29.8c0,1.77.76,2.53,2.53,2.53h4.29c2,0,3.16,1,3.16,2.65s-1.14,2.53-3.16,2.53H286.24c-2.15,0-3-.88-3-3Zm-36.62-3.91c0,8.08,5.68,12.75,15.4,12.75,8,0,14-3,17.42-8.71C281.19,70.45,283,62.5,283,57.7a2,2,0,0,0-1.14-1.89c-.5-.25-6.06-.51-11.24-.51C254.29,55.3,246.59,59.85,246.59,69.19Z" fill="#d3002d"/></svg>